# xmcd
#
# Track frame offsets: 
#        150
#        16668
#        35155
#        50948
#        78263
#        109800
#        126852
#        156577
#        176924
#        196075
#
# Disc length: 3098 seconds
#
# Revision: 0
# Processed by: cddbd v1.5.2PL0 Copyright (c) Steve Scherf et al.
# Submitted via: ExactAudioCopy v0.95a5
#
DISCID=880c180a
DTITLE=Stef Paglia - Never Forget
DYEAR=2019
DGENRE=Blues
TTITLE0=Watch Out
TTITLE1=Take Me Away
TTITLE2=Freedom
TTITLE3=Death Tree
TTITLE4=Mystery Heaven
TTITLE5=Twilight
TTITLE6=Dirty Woman
TTITLE7=Crush On You
TTITLE8=The Unknown
TTITLE9=Warmth Instead Of Cold
EXTD=
EXTT0=
EXTT1=
EXTT2=
EXTT3=
EXTT4=
EXTT5=
EXTT6=
EXTT7=
EXTT8=
EXTT9=
PLAYORDER=
